{
    "asset" : {
        "generator" : "Khronos glTF Blender I/O v1.6.16",
        "version" : "2.0"
    },
    "scene" : 0,
    "scenes" : [
        {
            "name" : "Scene",
            "nodes" : [
                5
            ]
        }
    ],
    "nodes" : [
        {
            "mesh" : 0,
            "name" : "laptop:polySurface432_laptop:lambert2_0",
            "scale" : [
                44.92892074584961,
                44.92892074584961,
                44.92892074584961
            ],
            "translation" : [
                0,
                -136.9921112060547,
                0
            ]
        },
        {
            "children" : [
                0
            ],
            "name" : "laptop:polySurface432"
        },
        {
            "children" : [
                1
            ],
            "name" : "RootNode"
        },
        {
            "children" : [
                2
            ],
            "name" : "1930ef56796542c390ddf4dcc177094c.fbx",
            "rotation" : [
                0.7071068286895752,
                0,
                0,
                0.7071068286895752
            ]
        },
        {
            "children" : [
                3
            ],
            "name" : "RootNode (model correction matrix)"
        },
        {
            "children" : [
                4
            ],
            "name" : "RootNode (gltf orientation matrix)",
            "rotation" : [
                -0.7071068286895752,
                0,
                0,
                0.7071068286895752
            ],
            "scale" : [
                1.3303287029266357,
                1.3303287029266357,
                1.3303287029266357
            ],
            "translation" : [
                0,
                -99.7349853515625,
                0
            ]
        }
    ],
    "materials" : [
        {
            "doubleSided" : true,
            "name" : "laptoplambert2.001",
            "pbrMetallicRoughness" : {
                "metallicFactor" : 0,
                "roughnessFactor" : 0.6000000238418579
            }
        }
    ],
    "meshes" : [
        {
            "name" : "laptop:polySurface432_laptop:lambert2_0.001",
            "primitives" : [
                {
                    "attributes" : {
                        "POSITION" : 0,
                        "NORMAL" : 1
                    },
                    "indices" : 2,
                    "material" : 0
                }
            ]
        }
    ],
    "accessors" : [
        {
            "bufferView" : 0,
            "componentType" : 5126,
            "count" : 6565,
            "max" : [
                8.816128730773926,
                10.535455703735352,
                7.263842582702637
            ],
            "min" : [
                -8.891949653625488,
                -1.0780835151672363,
                -5.076368808746338
            ],
            "type" : "VEC3"
        },
        {
            "bufferView" : 1,
            "componentType" : 5126,
            "count" : 6565,
            "type" : "VEC3"
        },
        {
            "bufferView" : 2,
            "componentType" : 5123,
            "count" : 9384,
            "type" : "SCALAR"
        }
    ],
    "bufferViews" : [
        {
            "buffer" : 0,
            "byteLength" : 78780,
            "byteOffset" : 0
        },
        {
            "buffer" : 0,
            "byteLength" : 78780,
            "byteOffset" : 78780
        },
        {
            "buffer" : 0,
            "byteLength" : 18768,
            "byteOffset" : 157560
        }
    ],
    "buffers" : [
        {
            "byteLength" : 176328,
            "uri" : "scene.bin"
        }
    ]
}
