{
    "asset" : {
        "generator" : "Khronos glTF Blender I/O v1.6.16",
        "version" : "2.0"
    },
    "scene" : 0,
    "scenes" : [
        {
            "name" : "Scene",
            "nodes" : [
                5
            ]
        }
    ],
    "nodes" : [
        {
            "mesh" : 0,
            "name" : "pSphere5_lambert1_0",
            "scale" : [
                1.7204903364181519,
                1.7204903364181519,
                1.7204903364181519
            ],
            "translation" : [
                -0.199724942445755,
                -172.0850067138672,
                -0.02106785774230957
            ]
        },
        {
            "children" : [
                0
            ],
            "name" : "pSphere5",
            "scale" : [
                0.009999999776482582,
                0.009999999776482582,
                0.009999999776482582
            ],
            "translation" : [
                0.001997249433770776,
                0.0016336262924596667,
                -0.02792619913816452
            ]
        },
        {
            "children" : [
                1
            ],
            "name" : "RootNode"
        },
        {
            "children" : [
                2
            ],
            "name" : "3857fb1889234cfe8c54c66a0f0e07bd.fbx",
            "rotation" : [
                0.7071068286895752,
                0,
                0,
                0.7071068286895752
            ]
        },
        {
            "children" : [
                3
            ],
            "name" : "RootNode (model correction matrix)"
        },
        {
            "children" : [
                4
            ],
            "name" : "RootNode (gltf orientation matrix)",
            "rotation" : [
                -0.7071068286895752,
                0,
                0,
                0.7071068286895752
            ],
            "scale" : [
                160.20993041992188,
                160.20993041992188,
                160.20993041992188
            ],
            "translation" : [
                0,
                275.4355773925781,
                211.79554748535156
            ]
        }
    ],
    "materials" : [
        {
            "doubleSided" : true,
            "name" : "lambert1",
            "pbrMetallicRoughness" : {
                "baseColorTexture" : {
                    "index" : 0
                },
                "metallicFactor" : 0,
                "roughnessFactor" : 0.6000000238418579
            }
        }
    ],
    "meshes" : [
        {
            "name" : "pSphere5_lambert1_0",
            "primitives" : [
                {
                    "attributes" : {
                        "POSITION" : 0,
                        "NORMAL" : 1,
                        "TEXCOORD_0" : 2
                    },
                    "indices" : 3,
                    "material" : 0
                }
            ]
        }
    ],
    "textures" : [
        {
            "sampler" : 0,
            "source" : 0
        }
    ],
    "images" : [
        {
            "mimeType" : "image/png",
            "name" : "lambert1_baseColor",
            "uri" : "lambert1_baseColor.png"
        }
    ],
    "accessors" : [
        {
            "bufferView" : 0,
            "componentType" : 5126,
            "count" : 1018,
            "max" : [
                178.21803283691406,
                177.57550048828125,
                111.55209350585938
            ],
            "min" : [
                -176.24693298339844,
                -178.6436767578125,
                -248.81005859375
            ],
            "type" : "VEC3"
        },
        {
            "bufferView" : 1,
            "componentType" : 5126,
            "count" : 1018,
            "type" : "VEC3"
        },
        {
            "bufferView" : 2,
            "componentType" : 5126,
            "count" : 1018,
            "type" : "VEC2"
        },
        {
            "bufferView" : 3,
            "componentType" : 5123,
            "count" : 3588,
            "type" : "SCALAR"
        }
    ],
    "bufferViews" : [
        {
            "buffer" : 0,
            "byteLength" : 12216,
            "byteOffset" : 0
        },
        {
            "buffer" : 0,
            "byteLength" : 12216,
            "byteOffset" : 12216
        },
        {
            "buffer" : 0,
            "byteLength" : 8144,
            "byteOffset" : 24432
        },
        {
            "buffer" : 0,
            "byteLength" : 7176,
            "byteOffset" : 32576
        }
    ],
    "samplers" : [
        {
            "magFilter" : 9729,
            "minFilter" : 9987
        }
    ],
    "buffers" : [
        {
            "byteLength" : 39752,
            "uri" : "scene.bin"
        }
    ]
}
